<svg width="16" height="20" viewBox="0 0 16 20" fill="none" xmlns="http://www.w3.org/2000/svg">
<path d="M2.68122 19.9357C2.17578 19.9357 1.74309 19.756 1.38315 19.3966C1.02321 19.0371 0.843246 18.605 0.843246 18.1003V8.92319C0.843246 8.41845 1.02321 7.98636 1.38315 7.62692C1.74309 7.26749 2.17578 7.08777 2.68122 7.08777H3.60021V5.25235C3.60021 3.98284 4.04822 2.90071 4.94423 2.00594C5.84024 1.11117 6.92388 0.663788 8.19515 0.663788C9.46641 0.663788 10.5501 1.11117 11.4461 2.00594C12.3421 2.90071 12.7901 3.98284 12.7901 5.25235V7.08777H13.7091C14.2145 7.08777 14.6472 7.26749 15.0071 7.62692C15.3671 7.98636 15.547 8.41845 15.547 8.92319V18.1003C15.547 18.605 15.3671 19.0371 15.0071 19.3966C14.6472 19.756 14.2145 19.9357 13.7091 19.9357H2.68122ZM2.68122 18.1003H13.7091V8.92319H2.68122V18.1003ZM8.19515 15.3472C8.70059 15.3472 9.13328 15.1675 9.49322 14.808C9.85315 14.4486 10.0331 14.0165 10.0331 13.5117C10.0331 13.007 9.85315 12.5749 9.49322 12.2155C9.13328 11.856 8.70059 11.6763 8.19515 11.6763C7.6897 11.6763 7.25701 11.856 6.89708 12.2155C6.53714 12.5749 6.35717 13.007 6.35717 13.5117C6.35717 14.0165 6.53714 14.4486 6.89708 14.808C7.25701 15.1675 7.6897 15.3472 8.19515 15.3472ZM5.43818 7.08777H10.9521V5.25235C10.9521 4.48759 10.6841 3.83754 10.148 3.30221C9.61192 2.76688 8.96097 2.49921 8.19515 2.49921C7.42932 2.49921 6.77837 2.76688 6.2423 3.30221C5.70622 3.83754 5.43818 4.48759 5.43818 5.25235V7.08777Z" fill="white" fill-opacity="0.9"/>
</svg>
