<svg width="26" height="25" viewBox="0 0 26 25" fill="none" xmlns="http://www.w3.org/2000/svg">
<path d="M12.6923 12.5C10.9471 12.5 9.45312 11.888 8.21034 10.6641C6.96755 9.4401 6.34615 7.96875 6.34615 6.25C6.34615 4.53125 6.96755 3.0599 8.21034 1.83594C9.45312 0.611979 10.9471 0 12.6923 0C14.4375 0 15.9315 0.611979 17.1743 1.83594C18.4171 3.0599 19.0385 4.53125 19.0385 6.25C19.0385 7.96875 18.4171 9.4401 17.1743 10.6641C15.9315 11.888 14.4375 12.5 12.6923 12.5ZM0 25V20.625C0 19.7396 0.23137 18.9258 0.694111 18.1836C1.15685 17.4414 1.77163 16.875 2.53846 16.4844C4.17788 15.6771 5.84375 15.0716 7.53606 14.668C9.22836 14.2643 10.9471 14.0625 12.6923 14.0625C14.4375 14.0625 16.1562 14.2643 17.8486 14.668C19.5409 15.0716 21.2067 15.6771 22.8462 16.4844C23.613 16.875 24.2278 17.4414 24.6905 18.1836C25.1532 18.9258 25.3846 19.7396 25.3846 20.625V25H0ZM3.17308 21.875H22.2115V20.625C22.2115 20.3385 22.1388 20.0781 21.9934 19.8438C21.848 19.6094 21.6562 19.4271 21.4183 19.2969C19.9904 18.5938 18.5493 18.0664 17.095 17.7148C15.6406 17.3633 14.1731 17.1875 12.6923 17.1875C11.2115 17.1875 9.74399 17.3633 8.28966 17.7148C6.83534 18.0664 5.39423 18.5938 3.96635 19.2969C3.72837 19.4271 3.53666 19.6094 3.39123 19.8438C3.24579 20.0781 3.17308 20.3385 3.17308 20.625V21.875ZM12.6923 9.375C13.5649 9.375 14.3119 9.06901 14.9333 8.45703C15.5547 7.84505 15.8654 7.10938 15.8654 6.25C15.8654 5.39062 15.5547 4.65495 14.9333 4.04297C14.3119 3.43099 13.5649 3.125 12.6923 3.125C11.8197 3.125 11.0727 3.43099 10.4513 4.04297C9.82993 4.65495 9.51923 5.39062 9.51923 6.25C9.51923 7.10938 9.82993 7.84505 10.4513 8.45703C11.0727 9.06901 11.8197 9.375 12.6923 9.375Z" fill="white" fill-opacity="0.9"/>
</svg>
