<svg width="21" height="16" viewBox="0 0 21 16" fill="none" xmlns="http://www.w3.org/2000/svg">
<path d="M2.77312 15.1074C2.2424 15.1074 1.78808 14.9276 1.41015 14.5682C1.03221 14.2088 0.843246 13.7767 0.843246 13.2719V2.2594C0.843246 1.75466 1.03221 1.32257 1.41015 0.963136C1.78808 0.603699 2.2424 0.423981 2.77312 0.423981H18.2121C18.7428 0.423981 19.1971 0.603699 19.5751 0.963136C19.953 1.32257 20.142 1.75466 20.142 2.2594V13.2719C20.142 13.7767 19.953 14.2088 19.5751 14.5682C19.1971 14.9276 18.7428 15.1074 18.2121 15.1074H2.77312ZM10.4926 8.68338L2.77312 4.09483V13.2719H18.2121V4.09483L10.4926 8.68338ZM10.4926 6.84796L18.2121 2.2594H2.77312L10.4926 6.84796ZM2.77312 4.09483V2.2594V13.2719V4.09483Z" fill="white" fill-opacity="0.9"/>
</svg>
