<svg width="26" height="25" viewBox="0 0 26 25" fill="none" xmlns="http://www.w3.org/2000/svg">
<path d="M23.4103 25L14.5256 16.25C13.8205 16.8056 13.0096 17.2454 12.0929 17.5694C11.1763 17.8935 10.2009 18.0556 9.16667 18.0556C6.6047 18.0556 4.43643 17.1817 2.66186 15.434C0.887286 13.6863 0 11.5509 0 9.02778C0 6.50463 0.887286 4.36921 2.66186 2.62153C4.43643 0.873843 6.6047 0 9.16667 0C11.7286 0 13.8969 0.873843 15.6715 2.62153C17.446 4.36921 18.3333 6.50463 18.3333 9.02778C18.3333 10.0463 18.1688 11.0069 17.8397 11.9097C17.5107 12.8125 17.0641 13.6111 16.5 14.3056L25.3846 23.0556L23.4103 25ZM9.16667 15.2778C10.9295 15.2778 12.4279 14.6701 13.6619 13.4549C14.8958 12.2396 15.5128 10.7639 15.5128 9.02778C15.5128 7.29167 14.8958 5.81597 13.6619 4.60069C12.4279 3.38542 10.9295 2.77778 9.16667 2.77778C7.40385 2.77778 5.90545 3.38542 4.67147 4.60069C3.4375 5.81597 2.82051 7.29167 2.82051 9.02778C2.82051 10.7639 3.4375 12.2396 4.67147 13.4549C5.90545 14.6701 7.40385 15.2778 9.16667 15.2778Z" fill="white" fill-opacity="0.9"/>
</svg>
